<svg id="Layer_1" data-name="Layer 1" xmlns="http://www.w3.org/2000/svg" viewBox="0 0 267.28 268.36"><defs><style>.cls-1{font-size:21.39px;fill:#fff;font-family:Parabole;}</style></defs><text class="cls-1" transform="translate(217.54 152.46) rotate(107.24)">P</text><text class="cls-1" transform="translate(213.54 164.84) rotate(113.92)">r</text><text class="cls-1" transform="matrix(-0.5, 0.86, -0.86, -0.5, 210.88, 171.24)">o</text><text class="cls-1" transform="translate(204.65 181.59) rotate(126.1)">j</text><text class="cls-1" transform="translate(201.73 185.88) rotate(131.65)">e</text><text class="cls-1" transform="translate(194.36 194.21) rotate(139.22)">c</text><text class="cls-1" transform="translate(185.8 201.46) rotate(145.34)">t</text><text class="cls-1" transform="translate(180.07 205.4) rotate(149.44)"> </text><text class="cls-1" transform="translate(175.95 208.16) rotate(155.86)">C</text><text class="cls-1" transform="translate(162.87 213.76) rotate(162.21)">l</text><text class="cls-1" transform="translate(158.07 215.31) rotate(165.62)">i</text><text class="cls-1" transform="translate(153.35 216.69) rotate(171.09)">c</text><text class="cls-1" transform="matrix(-1, 0.03, -0.03, -1, 142.3, 218.42)">k</text><text class="cls-1" transform="translate(131.91 218.6) rotate(-176.37)"> </text><text class="cls-1" transform="translate(126.82 218.29) rotate(-172.91)"> </text><text class="cls-1" transform="matrix(-0.98, -0.18, 0.18, -0.98, 121.71, 217.66)"> </text><text class="cls-1" transform="translate(116.66 216.72) rotate(-165.97)"> </text><text class="cls-1" transform="matrix(-0.95, -0.3, 0.3, -0.95, 111.69, 215.49)"> </text><text class="cls-1" transform="translate(106.8 213.96) rotate(-159.09)"> </text><text class="cls-1" transform="translate(101.99 212.12) rotate(-155.63)"> </text><text class="cls-1" transform="matrix(-0.88, -0.47, 0.47, -0.88, 97.32, 210.02)"> </text><text class="cls-1" transform="translate(92.78 207.63) rotate(-148.74)"> </text><text class="cls-1" transform="matrix(-0.82, -0.57, 0.57, -0.82, 88.39, 204.97)"> </text><text class="cls-1" transform="matrix(-0.76, -0.65, 0.65, -0.76, 84.17, 202.33)">P</text><text class="cls-1" transform="matrix(-0.67, -0.74, 0.74, -0.67, 74.43, 193.72)">r</text><text class="cls-1" transform="translate(69.62 188.71) rotate(-125.98)">o</text><text class="cls-1" transform="matrix(-0.5, -0.86, 0.86, -0.5, 62.65, 178.84)">j</text><text class="cls-1" transform="translate(59.92 174.45) rotate(-114.64)">e</text><text class="cls-1" transform="translate(55.25 164.36) rotate(-107.23)">c</text><text class="cls-1" transform="translate(52.02 153.59) rotate(-101.12)">t</text><text class="cls-1" transform="translate(50.7 146.78) rotate(-97.03)"> </text><text class="cls-1" transform="translate(49.81 141.88) rotate(-90.5)">C</text><text class="cls-1" transform="matrix(0.1, -0.99, 0.99, 0.1, 49.93, 127.67)">l</text><text class="cls-1" transform="translate(50.44 122.68) rotate(-80.64)">i</text><text class="cls-1" transform="translate(51.08 117.78) rotate(-75.18)">c</text><text class="cls-1" transform="translate(53.94 106.97) rotate(-67.98)">k</text><text class="cls-1" transform="translate(57.93 97.39) rotate(-62.81)"> </text><text class="cls-1" transform="translate(60.27 92.83) rotate(-59.37)"> </text><text class="cls-1" transform="matrix(0.56, -0.83, 0.83, 0.56, 62.88, 88.41)"> </text><text class="cls-1" transform="translate(65.76 84.14) rotate(-52.43)"> </text><text class="cls-1" transform="matrix(0.66, -0.75, 0.75, 0.66, 68.88, 80.07)"> </text><text class="cls-1" transform="matrix(0.7, -0.71, 0.71, 0.7, 72.24, 76.2)"> </text><text class="cls-1" transform="matrix(0.74, -0.67, 0.67, 0.74, 75.82, 72.55)"> </text><text class="cls-1" transform="translate(79.64 69.11) rotate(-38.5)"> </text><text class="cls-1" transform="matrix(0.82, -0.57, 0.57, 0.82, 83.64, 65.91)"> </text><text class="cls-1" transform="translate(87.58 62.86) rotate(-28.92)">P</text><text class="cls-1" transform="translate(99.02 56.68) rotate(-21.62)">r</text><text class="cls-1" transform="matrix(0.96, -0.27, 0.27, 0.96, 105.42, 53.92)">o</text><text class="cls-1" transform="matrix(0.98, -0.18, 0.18, 0.98, 117.06, 50.77)">j</text><text class="cls-1" transform="translate(122.15 49.7) rotate(-4.5)">e</text><text class="cls-1" transform="translate(133.2 48.79) rotate(3.04)">c</text><text class="cls-1" transform="translate(144.43 49.49) rotate(9.16)">t</text><text class="cls-1" transform="translate(151.26 50.61) rotate(13.21)"> </text><text class="cls-1" transform="translate(156.16 51.47) rotate(19.65)">C</text><text class="cls-1" transform="translate(169.47 56.48) rotate(26.06)">l</text><text class="cls-1" transform="translate(174.01 58.69) rotate(29.46)">i</text><text class="cls-1" transform="matrix(0.82, 0.57, -0.57, 0.82, 178.39, 60.98)">c</text><text class="cls-1" transform="matrix(0.74, 0.67, -0.67, 0.74, 187.55, 67.37)">k</text><text class="cls-1" transform="translate(195.16 74.4) rotate(47.38)"> </text><text class="cls-1" transform="translate(198.65 78.18) rotate(50.88)"> </text><text class="cls-1" transform="matrix(0.58, 0.81, -0.81, 0.58, 201.88, 82.14)"> </text></svg>