<svg width="334" height="70" viewBox="0 0 334 70" fill="none" xmlns="http://www.w3.org/2000/svg">
<mask id="mask0_2562_389" style="mask-type:luminance" maskUnits="userSpaceOnUse" x="0" y="1" width="333" height="69">
<path d="M332.788 1H0V69.0029H332.788V1Z" fill="white"/>
</mask>
<g mask="url(#mask0_2562_389)">
<path d="M7.96805 28.6501C1.05041 28.6501 -0.246649 24.5736 0.0415856 19.9412H5.64158C5.64158 22.4942 5.74452 24.656 8.83275 24.656C10.7269 24.656 11.6533 23.4413 11.6533 21.6089C11.6328 16.7912 0.370998 16.4823 0.370998 8.5147C0.370998 4.33529 2.36805 1 9.18275 1C14.6386 1 17.3357 3.45 16.9651 9.05H11.5092C11.5092 7.05294 11.1798 5.0147 8.91511 5.0147C7.10334 5.0147 6.03275 6.02353 6.03275 7.87647C6.03275 12.9412 17.2945 12.5088 17.2945 20.9295C17.2945 27.8677 12.2092 28.6707 7.94746 28.6707L7.96805 28.6501Z" fill="white"/>
<path d="M24.6026 28.1963L26.1262 22.2669H33.7644L35.2467 28.1963H41.135L33.8673 1.43164H26.4967L19.085 28.1963H24.6026ZM32.5703 18.1493H27.2379L29.7909 6.5787H29.8732L32.5703 18.1493Z" fill="white"/>
<path d="M43.4824 28.1963V1.43164H52.4795L56.6589 19.6316H56.7412L61.1883 1.43164H69.8971V28.1963H64.4412V7.56693H64.3795L59.2118 28.1963H53.8795L49.0001 7.56693H48.9177V28.1963H43.4824Z" fill="white"/>
<path d="M81.5295 28.6489C74.5912 28.6489 73.2942 24.5724 73.603 19.9401H79.203C79.203 22.493 79.3059 24.6548 82.3942 24.6548C84.2883 24.6548 85.2148 23.4401 85.2148 21.6077C85.2148 16.7901 73.953 16.5019 73.953 8.53424C73.953 4.33424 75.9501 1.01953 82.7648 1.01953C88.2207 1.01953 90.9177 3.46954 90.5471 9.06954H85.0912C85.0912 7.07248 84.7618 5.03424 82.4971 5.03424C80.6854 5.03424 79.6148 6.04307 79.6148 7.89601C79.6148 12.9607 90.8765 12.5284 90.8765 20.9489C90.8765 27.8871 85.7912 28.6901 81.5295 28.6901V28.6489Z" fill="white"/>
<path d="M112.762 1.43164V20.414C112.762 24.4081 110.497 28.6493 103.682 28.6493C97.5262 28.6493 94.5615 25.4581 94.5615 20.414V1.43164H100.162V20.0434C100.162 23.3375 101.562 24.6346 103.6 24.6346C106.05 24.6346 107.162 23.0081 107.162 20.0434V1.43164H112.762Z" fill="white"/>
<path d="M117.188 28.1963V1.43164H124.744L131.868 19.961H131.93V1.43164H137.159V28.1963H129.788L122.48 8.63752H122.397V28.1963H117.188Z" fill="white"/>
<path d="M153.918 9.66764C153.959 7.17647 153.547 4.99411 150.583 4.99411C147.103 4.99411 147.103 9.70882 147.103 14.8971C147.103 23.2766 147.927 24.7589 151.097 24.7589C152.024 24.7589 153.033 24.5325 153.877 24.2442V18.3147H150.83V14.1971H159.456V27.7648C157.933 28.053 154.124 28.6501 151.9 28.6501C142.491 28.6501 141.421 24.7589 141.421 14.6088C141.421 7.85588 141.75 1 150.912 1C156.389 1 159.806 4.06764 159.477 9.66764H153.918Z" fill="white"/>
<path d="M0 68.5713V41.8066H14.5971V45.9243H5.6V52.5331H13.8971V56.6302H5.6V64.4537H14.9059V68.5713H0Z" fill="white"/>
<path d="M18.3848 68.5713V41.8066H23.9847V64.1243H32.3435V68.5713H18.3848Z" fill="white"/>
<path d="M34.6094 68.5713V41.8066H49.2064V45.9243H40.2094V52.5331H48.5064V56.6302H40.2094V64.4537H49.5153V68.5713H34.6094Z" fill="white"/>
<path d="M52.7061 55.1897C52.7061 48.1074 52.7061 41.375 61.9296 41.375C67.6325 41.375 69.9384 44.525 69.7119 50.2691H64.2355C64.2355 46.7074 63.5972 45.3691 61.9296 45.3691C58.7796 45.3691 58.3678 48.3338 58.3678 55.1897C58.3678 62.0456 58.7796 65.0103 61.9296 65.0103C64.5237 65.0103 64.4208 61.675 64.4825 59.5544H70.0002C70.0002 66.6985 67.1384 69.0044 61.9296 69.0044C52.7061 69.0044 52.7061 62.1897 52.7061 55.1897Z" fill="white"/>
<path d="M89.3117 41.8066V46.2537H83.0941V68.5713H77.4941V46.2537H71.2559V41.8066H89.3117Z" fill="white"/>
<path d="M97.1968 57.4949H98.6379C102.941 57.4949 102.632 60.1919 102.632 63.3831C102.632 65.1331 102.488 66.9449 103.229 68.5713H108.706C108.191 67.4596 108.067 62.4155 108.067 60.7272C108.067 55.9096 104.444 55.6213 103.209 55.4566V55.3743C106.832 54.7772 108.17 52.2243 108.17 48.8066C108.17 44.2566 105.72 41.8066 101.911 41.8066H91.5762V68.5713H97.1762V57.4949H97.1968ZM97.1968 45.9243H99.6879C101.459 45.9243 102.55 46.8919 102.55 49.4449C102.55 51.1537 101.911 53.3772 99.6879 53.3772H97.1968V45.9243Z" fill="white"/>
<path d="M121.1 69.0044C130.324 69.0044 130.324 62.1897 130.324 55.1897C130.324 48.1897 130.324 41.375 121.1 41.375C111.877 41.375 111.877 48.1279 111.877 55.1897C111.877 62.2515 111.877 69.0044 121.1 69.0044ZM121.1 65.0103C117.95 65.0103 117.539 62.0456 117.539 55.1897C117.539 48.3338 117.95 45.3691 121.1 45.3691C124.25 45.3691 124.662 48.3338 124.662 55.1897C124.662 62.0456 124.25 65.0103 121.1 65.0103Z" fill="white"/>
<path d="M142.965 56.6699H133.886V60.4582H142.965V56.6699Z" fill="white"/>
<path d="M146.65 68.5713V41.8066H155.647L159.827 60.0066H159.909L164.356 41.8066H173.065V68.5713H167.609V47.9213H167.547L162.4 68.5713H157.047L152.168 47.9213H152.086V68.5713H146.65Z" fill="white"/>
<path d="M177.43 68.5713V41.8066H192.047V45.9243H183.03V52.5331H191.327V56.6302H183.03V64.4537H192.336V68.5713H177.43Z" fill="white"/>
<path d="M195.526 55.1897C195.526 48.1074 195.526 41.375 204.75 41.375C210.453 41.375 212.759 44.525 212.532 50.2691H207.056C207.056 46.7074 206.418 45.3691 204.75 45.3691C201.6 45.3691 201.188 48.3338 201.188 55.1897C201.188 62.0456 201.6 65.0103 204.75 65.0103C207.344 65.0103 207.241 61.675 207.303 59.5544H212.82C212.82 66.6985 209.959 69.0044 204.75 69.0044C195.526 69.0044 195.526 62.1897 195.526 55.1897Z" fill="white"/>
<path d="M228.386 52.5331V41.8066H233.986V68.5713H228.386V56.6302H221.983V68.5713H216.383V41.8066H221.983V52.5331H228.386Z" fill="white"/>
<path d="M242.138 68.5713L243.661 62.6419H251.3L252.782 68.5713H258.67L251.402 41.8066H244.032L236.62 68.5713H242.138ZM250.105 58.5243H244.773L247.326 46.9537H247.408L250.105 58.5243Z" fill="white"/>
<path d="M261.142 68.5713V41.8066H268.718L275.821 60.3361H275.903V41.8066H281.133V68.5713H273.742L266.453 48.9919H266.371V68.5713H261.142Z" fill="white"/>
<path d="M291.242 41.8066H285.642V68.5713H291.242V41.8066Z" fill="white"/>
<path d="M295.503 55.1897C295.503 48.1074 295.503 41.375 304.726 41.375C310.429 41.375 312.735 44.525 312.509 50.2691H307.032C307.032 46.7074 306.394 45.3691 304.726 45.3691C301.576 45.3691 301.165 48.3338 301.165 55.1897C301.165 62.0456 301.576 65.0103 304.726 65.0103C307.321 65.0103 307.218 61.675 307.279 59.5544H312.797C312.797 66.6985 309.935 69.0044 304.726 69.0044C295.503 69.0044 295.503 62.1897 295.503 55.1897Z" fill="white"/>
<path d="M323.442 69.0044C316.503 69.0044 315.206 64.9279 315.515 60.2956H321.115C321.115 62.8485 321.218 65.0103 324.306 65.0103C326.2 65.0103 327.127 63.7956 327.127 61.9632C327.127 57.1456 315.865 56.8574 315.865 48.8897C315.865 44.6897 317.862 41.375 324.677 41.375C330.133 41.375 332.83 43.825 332.459 49.425H327.003C327.003 47.4279 326.674 45.3897 324.409 45.3897C322.597 45.3897 321.527 46.3985 321.527 48.2515C321.527 53.3162 332.789 52.8838 332.789 61.3044C332.789 68.2426 327.703 69.0456 323.442 69.0456V69.0044Z" fill="white"/>
</g>
</svg>
